<?xml version="1.0" encoding="UTF-8" standalone="no"?>
<svg
   xmlns:dc="http://purl.org/dc/elements/1.1/"
   xmlns:cc="http://creativecommons.org/ns#"
   xmlns:rdf="http://www.w3.org/1999/02/22-rdf-syntax-ns#"
   xmlns:svg="http://www.w3.org/2000/svg"
   xmlns="http://www.w3.org/2000/svg"
   xmlns:sodipodi="http://sodipodi.sourceforge.net/DTD/sodipodi-0.dtd"
   xmlns:inkscape="http://www.inkscape.org/namespaces/inkscape"
   version="1.1"
   id="Layer_1"
   x="0px"
   y="0px"
   viewBox="0 0 18 18"
   style="enable-background:new 0 0 18 18;"
   xml:space="preserve"
   sodipodi:docname="logo.svg"
   inkscape:version="1.0.1 (3bc2e813f5, 2020-09-07, custom)"><metadata
   id="metadata10"><rdf:RDF><cc:Work
       rdf:about=""><dc:format>image/svg+xml</dc:format><dc:type
         rdf:resource="http://purl.org/dc/dcmitype/StillImage" /><dc:title></dc:title></cc:Work></rdf:RDF></metadata><defs
   id="defs8" /><sodipodi:namedview
   pagecolor="#ffffff"
   bordercolor="#666666"
   borderopacity="1"
   objecttolerance="10"
   gridtolerance="10"
   guidetolerance="10"
   inkscape:pageopacity="0"
   inkscape:pageshadow="2"
   inkscape:window-width="1920"
   inkscape:window-height="1025"
   id="namedview6"
   showgrid="true"
   showguides="true"
   inkscape:guide-bbox="true"
   inkscape:zoom="22.627417"
   inkscape:cx="11.006158"
   inkscape:cy="12.605274"
   inkscape:window-x="0"
   inkscape:window-y="27"
   inkscape:window-maximized="1"
   inkscape:current-layer="Layer_1"><inkscape:grid
     type="xygrid"
     id="grid14" /><sodipodi:guide
     position="9,7.5146873"
     orientation="1,0"
     id="guide18" /><sodipodi:guide
     position="14,9"
     orientation="0,-1"
     id="guide20" /></sodipodi:namedview>



<path
   id="path864"
   style="opacity:0.96;fill:#ca7100;fill-opacity:1;fill-rule:evenodd;stroke:none;stroke-width:1;stroke-linecap:round;stroke-linejoin:round;stroke-miterlimit:4;stroke-dasharray:none;stroke-dashoffset:318;stroke-opacity:1"
   d="M 9,17 3.96819,13 4,4 9,1 14.03181,3.9999996 14,13 Z"
   sodipodi:nodetypes="ccccccc" /><path
   id="path868"
   style="color:#000000;font-style:normal;font-variant:normal;font-weight:normal;font-stretch:normal;font-size:medium;line-height:normal;font-family:sans-serif;font-variant-ligatures:normal;font-variant-position:normal;font-variant-caps:normal;font-variant-numeric:normal;font-variant-alternates:normal;font-variant-east-asian:normal;font-feature-settings:normal;font-variation-settings:normal;text-indent:0;text-align:start;text-decoration:none;text-decoration-line:none;text-decoration-style:solid;text-decoration-color:#000000;letter-spacing:normal;word-spacing:normal;text-transform:none;writing-mode:lr-tb;direction:ltr;text-orientation:mixed;dominant-baseline:auto;baseline-shift:baseline;text-anchor:start;white-space:normal;shape-padding:0;shape-margin:0;inline-size:0;clip-rule:nonzero;display:inline;overflow:visible;visibility:visible;isolation:auto;mix-blend-mode:normal;color-interpolation:sRGB;color-interpolation-filters:linearRGB;solid-color:#000000;solid-opacity:1;vector-effect:none;fill:#000000;fill-opacity:1;fill-rule:evenodd;stroke:none;stroke-width:1;stroke-linecap:round;stroke-linejoin:round;stroke-miterlimit:4;stroke-dasharray:none;stroke-dashoffset:318;stroke-opacity:1;color-rendering:auto;image-rendering:auto;shape-rendering:auto;text-rendering:auto;enable-background:accumulate;stop-color:#000000;stop-opacity:1;opacity:0.96"
   d="M 8.9707031 0.5 A 0.50005 0.50005 0 0 0 8.7421875 0.5703125 L 3.7421875 3.5703125 A 0.50005 0.50005 0 0 0 3.5 3.9980469 L 3.46875 12.998047 A 0.50005 0.50005 0 0 0 3.65625 13.390625 L 8.6894531 17.390625 A 0.50005 0.50005 0 0 0 9.3125 17.390625 L 14.3125 13.390625 A 0.50005 0.50005 0 0 0 14.5 13.001953 L 14.53125 4.0019531 A 0.50005 0.50005 0 0 0 14.287109 3.5703125 L 9.2558594 0.5703125 A 0.50005 0.50005 0 0 0 8.9707031 0.5 z M 9.5 1.8808594 L 13.220703 4.0976562 L 10.916016 6.3808594 L 9.5 5.5371094 L 9.5 1.8808594 z M 8.5 1.8828125 L 8.5 5.5351562 L 7.0898438 6.3828125 L 4.8066406 4.0996094 L 8.5 1.8828125 z M 4.4941406 5.2011719 L 6.5117188 7.21875 L 6.5 10.349609 L 4.4707031 11.980469 L 4.4941406 5.2011719 z M 13.527344 5.2011719 L 13.503906 11.962891 L 11.488281 10.351562 L 11.5 7.2089844 L 13.527344 5.2011719 z M 9 6.4023438 L 10.498047 7.296875 L 10.488281 10.349609 L 8.9980469 11.541016 L 7.5 10.349609 L 7.5117188 7.296875 L 9 6.4023438 z M 7.0019531 11.228516 L 8.5 12.419922 L 8.5 15.964844 L 4.7851562 13.011719 L 7.0019531 11.228516 z M 10.986328 11.230469 L 13.199219 13 L 9.5 15.958984 L 9.5 12.419922 L 10.986328 11.230469 z " /><path
   id="path901"
   style="opacity:0.96;fill:#d9af00;fill-opacity:1;fill-rule:evenodd;stroke:none;stroke-width:1;stroke-linecap:round;stroke-linejoin:round;stroke-miterlimit:4;stroke-dasharray:none;stroke-dashoffset:318;stroke-opacity:1"
   d="m 9.5,1.8808594 v 3.65625 l 1.416016,0.84375 2.304687,-2.2832032 z"
   sodipodi:nodetypes="ccccc" /></svg>
